<?xml version="1.0" standalone="no"?>
<!DOCTYPE svg PUBLIC "-//W3C//DTD SVG 1.1//EN" "http://www.w3.org/Graphics/SVG/1.1/DTD/svg11.dtd" >
<svg xmlns="http://www.w3.org/2000/svg">
<metadata>Generated by IcoMoon</metadata>
<defs>
<font id="icomoon" horiz-adv-x="512">
<font-face units-per-em="512" ascent="480" descent="-32" />
<missing-glyph horiz-adv-x="512" />
<glyph unicode="&#x20;" d="" horiz-adv-x="256" />
<glyph unicode="&#xe600;" d="M448.64 417.6v62.368h-448.64v-480h448.64v34.432h63.36v383.2h-63.36zM61.696 68.288v345.152h325.248v-345.152h-325.248zM479.072 66.496h-30.432v318.624h30.432v-318.624zM94.752 386.272h255.584v-31.584h-255.584v31.584zM94.752 322.336h127.808v-221.792h-127.808v221.792zM254.464 322.336h95.904v-30.752h-95.904v30.752zM254.464 258.368h95.904v-30.72h-95.904v30.72zM254.464 195.264h95.904v-30.752h-95.904v30.752zM254.88 131.328h56.672v-30.784h-56.672v30.784z" />
<glyph unicode="&#xe603;" d="M0 480l512-512v512h-512zM485.588 310.368h-96.666v-101.067h-47.211v101.067h-103.412v47.165h103.412v103.313h47.211v-103.313h96.666v-47.165z" />
<glyph unicode="&#xe604;" d="M507.883 251.704c-3.863 8.541-10.038 12.035-18.536 10.479-10.808 0-21.613 2.719-32.423 8.157-10.813 5.437-18.532 13.587-23.161 24.464-4.639 10.866-5.599 21.742-2.895 32.608 2.695 10.869 8.295 20.192 16.793 27.955 1.543 1.555 3.277 3.691 5.216 6.407 1.927 2.716 2.509 5.628 1.738 8.737-1.543 10.868-6.947 20.964-16.216 30.28-9.274 9.323-18.148 15.918-26.64 19.805-3.089 1.553-6.558 1.553-10.419 0-3.856-1.554-6.947-3.104-9.267-4.659-7.731-8.541-17.183-13.977-28.372-16.307-11.201-2.327-22.2-1.166-33.007 3.493-10.808 4.657-18.913 11.841-24.32 21.546-5.404 9.702-7.726 19.998-6.947 30.869 0 3.103-0.589 6.603-1.741 10.48-1.166 3.882-3.677 6.602-7.534 8.152l-13.889 3.502c-6.179 1.553-12.548 2.327-19.109 2.327-6.567 0-12.93-0.584-19.112-1.745-6.177-1.168-11.19-3.303-15.055-6.409-2.318-1.555-3.67-3.88-4.056-6.991-0.384-3.105-0.959-5.427-1.736-6.982 0-2.329-0.773-5.823-2.321-10.489-1.543-4.657-3.663-9.507-6.368-14.557-2.704-5.046-6.179-10.096-10.424-15.139-4.248-5.046-9.070-8.736-14.476-11.068-10.813-3.877-21.811-4.464-33.010-1.746-11.197 2.719-20.652 7.962-28.379 15.726-5.4 5.437-10.805 7.764-16.212 6.986-7.722-1.552-16.023-6.602-24.902-15.143-8.876-8.537-15.253-17.077-19.107-25.621-3.861-9.328-3.088-16.698 2.311-22.13 7.724-8.541 13.517-18.639 17.373-30.285 3.861-11.648 3.481-22.912-1.154-33.778-4.638-10.873-12.549-19.026-23.748-24.465-11.197-5.437-22.581-8.157-34.16-8.157-5.409 0.778-10.426-2.322-15.060-9.316-4.631-7.771-7.14-19.214-7.524-34.36-0.387-15.146 2.511-25.828 8.685-32.037 2.318-3.109 6.565-5.439 12.739-6.991 7.722-0.772 15.055-2.327 22.006-4.657 6.175-2.322 11.967-5.439 17.371-9.325 5.404-3.882 9.263-9.323 11.578-16.303 3.861-10.877 4.056-21.36 0.579-31.457-3.475-10.096-8.294-17.862-14.478-23.296-7.72-7.766-10.806-14.755-9.26-20.962 1.543-8.546 7.331-18.065 17.371-28.544 10.040-10.478 19.302-17.661 27.794-21.548 9.27-3.877 16.603-3.103 22.004 2.334 7.727 8.532 17.569 14.555 29.54 18.043 11.964 3.498 23.354 2.913 34.16-1.755 10.813-5.43 18.916-13.587 24.322-24.459 5.406-10.866 8.108-21.746 8.108-32.612 0-8.546 3.089-13.976 9.262-16.307 8.497-3.887 19.31-6.023 32.43-6.409 13.126-0.381 22.774 1.359 28.952 5.252 6.945 3.87 10.424 10.096 10.424 18.635 0 10.866 2.704 21.351 8.103 31.449 5.404 10.096 13.517 17.473 24.325 22.132 10.813 3.88 21.615 3.498 32.43-1.171 10.808-4.659 19.305-9.709 25.472-15.144 3.093-2.32 5.988-4.273 8.69-5.818s6.368-1.932 11.003-1.163c9.267 0.768 19.109 6.402 29.529 16.892 10.424 10.479 16.412 19.998 17.955 28.544 0.765 2.32 0.765 4.846 0 7.566-0.771 2.723-1.543 4.846-2.315 6.404-1.543 2.325-2.704 4.273-3.47 5.823-8.495 8.539-13.901 18.058-16.221 28.537-2.313 10.485-1.156 21.159 3.477 32.039 4.632 10.87 12.344 19.221 23.163 25.037 10.805 5.825 22 8.351 33.582 7.573 3.091 0 6.365 0.973 9.842 2.913 3.47 1.938 5.983 6.014 7.526 12.232 3.093 9.32 4.817 19.419 5.217 30.278 0.389 10.894-0.966 19.435-4.052 25.649zM329.523 187.641c-9.265-20.962-24.129-36.305-44.586-46.012-20.454-9.702-41.891-9.505-64.277 0.587l-2.314-3.498c-22.393 9.327-36.871 25.447-43.434 48.347-6.565 22.902-5.213 44.837 4.056 65.808 8.49 20.189 23.354 34.558 44.586 43.094 21.232 8.546 42.271 8.546 63.123 0 20.075-9.316 34.365-24.455 42.859-45.426 8.474-20.966 8.474-41.935-0.014-62.899z" />
<glyph unicode="&#xe605;" d="M256 448c-123.712 0-224-100.32-224-224 0-123.712 100.288-224 224-224s224 100.288 224 224c0 123.68-100.288 224-224 224zM313.056 346.112h35.2v-96h-35.2v96zM157.856 346.112h35.2v-96h-35.2v96zM256 52.8c-69.824 0-126.4 56.576-126.4 126.368h252.8c0-69.792-56.576-126.368-126.4-126.368z" />
<glyph unicode="&#xe606;" d="M255.995 480c-141.384 0-255.995-114.618-255.995-256 0-141.389 114.611-256 255.995-256 141.389 0 256 114.611 256 256-0.002 141.382-114.611 256-256 256zM255.995 5.816c-120.492 0-218.175 97.685-218.175 218.189 0 120.49 97.683 218.177 218.175 218.177 120.501 0 218.182-97.688 218.182-218.177 0-120.504-97.683-218.189-218.182-218.189zM269.322 265.002h0.8v100.408h-28.16v-100.406h0.71c-17.29-5.613-29.8-21.837-29.8-41 0-4.755 0.8-9.312 2.222-13.589l-90.701-90.705 28.923-28.928 91.588 91.587c3.549-0.942 7.25-1.494 11.097-1.494 23.817 0 43.129 19.307 43.129 43.129-0.007 19.156-12.521 35.384-29.808 40.997z" />
<glyph unicode="&#xe607;" d="M128 352h64v-64h-64v64zM256 352h64v-64h-64v64zM128 224h32v-32h-32v32zM160 192h128v-32h-128v32zM288 224h32v-32h-32v32zM64 64h-64v-32h32v-32h416v32h32v32h-96v32h-320zM480 384h-64v64h-384v-352h32v320h320v-320h32v96h32v32h-32v128h64v-96h32v128zM448 256h32v-32h-32v32z" />
<glyph unicode="&#xe608;" d="M127.104 384.288h32.864v-32.16h32.288v32.16h31.648v31.616h31.744v-31.904h32.16v-31.872h-32.16v31.872h-31.84v-31.872h-31.552v-32.992h95.552v32.704h32.992v32.16h31.488v31.904h31.84v32.096h-288.288v-32.096h31.264zM64.256 320.576h95.84v31.264h-32.992v32.448h-31.264v31.616h-31.584v-31.616h-31.84v-32.448h-32.416v-31.264h32.416zM352.288 384v-32.16h-31.488v-31.264h159.168v31.264h-34.112v32.16h-30.304v31.904h-31.424v-31.904zM32.288 224h63.968v-32h-63.968v32zM0 288.448v-64.288h63.968v32.128h64.064v-32.288h32.064v-32h32.736v-31.264h30.976v-32.416h31.84v32.416h32.16v31.264h32.064v32h32.416v32.288h63.264v-32.128h-32.128v-32.16h-32.128v-32.128h-32.16v-31.552h-31.552v-32.128h-32.128v-32.16h-31.392v-0.128h-31.968v-32.16h31.968v-31.744h32v31.744h31.36v32.16h32v32.128h32.128v31.552h31.552v32.128h32.16v32.16h32.128v32.128h32.128v32.288h0.48v32.16zM191.936 96.192v31.392h-32.192v33.152h-31.52v31.136h-63.936v-32h31.488v-32.288h32.192v-31.392zM160.096 96.032h63.968v-32h-63.968v32z" />
<glyph unicode="&#xe609;" d="M511.488 480h-511.488v-512h512v512h-0.512zM64.224 31.52v385.76h385.44v-385.76h-385.44zM382.976 351.488h-253.248v-64.224h92.928v-191.52h65.184v191.52h95.136z" />
<glyph unicode="&#xe60a;" d="M95.744 320.256h32.032v-255.776h-32.032v255.776zM447.392 480h-383.744v-32.032h-63.648v-479.968h415.52v447.872h-351.872v31.296h383.744v-412.192h32.608v445.024h-32.608zM352.224 351.808v-319.328h-288.576v319.328h288.576z" />
<glyph unicode="&#xe60b;" d="M35.136 100.032h96v-30.976h-96v30.976zM67.232 38.304h32.544v-33.856h31.36v64.544h-63.904zM479.968 319.84h-127.648v160.16h-190.784v-1.12h-1.856v-159.424h-159.68v-191.296h159.68v-160.16h190.784v1.12h1.856v159.392h159.68v191.328h-32.032zM479.968 160.8h-159.456v-159.968h-129.024v158.592h-159.456v127.776h159.456v159.968h129.056v-127.328h-0.032v-31.264h159.456v-127.776zM380.864 378.944h96v-30.976h-96v30.976zM444.768 409.696h-32.544v33.856h-31.36v-64.544h63.904z" />
<glyph unicode="&#xe60c;" d="M449.312 480h-449.312v-512h512v512h-62.688zM63.072 449.024h386.24v-320.608h-386.24v320.608zM449.312 32.288h-386.24v32.384h386.24v-32.384zM223.84 191.232h32v32.768h30.848v31.904h33.248v31.424h-33.248v33.248h-30.848v31.424h-32v32.352h-31.392v-224.544h31.392z" />
<glyph unicode="&#xe60d;" d="M447.936 480v-32.256h-32.064v-31.776h-32.064v-31.648h32.064v-224.256h-32.064v31.968h-31.648v31.968h-31.648v-63.936h-32.512v31.616h-32.064v32.32h-64.128v-32.32h-31.648v64.512h-32.512v-32.192h-31.648v-32.32h-32.192v192.64h32.192v31.648h-32.192v31.776h-31.808v32.256h-32v-384.192h32v-31.744h31.808v-31.424h32.192v-32.288h31.648v32.288h32.512v31.424h31.648v31.744h32.064v-31.168h32.064v-32h32.064v-32.288h32.512v-32.352h31.648v32.352h31.648v32.288h32.064v31.424h32.064v32.064h32.064v383.872zM351.712 384.32h32.064v-32.064h-32.064v32.064zM320.064 352.256h31.648v-31.616h-31.648v31.616zM288 384.32h32.064v-32.064h-32.064v32.064zM255.936 415.968h32.064v-31.648h-32.064v31.648zM223.872 447.744h32.064v-31.776h-32.064v31.776zM191.808 480h32.064v-32.256h-32.064v32.256zM159.712 447.744h32.064v-31.776h-32.064v31.776zM127.648 415.968h32.064v-31.648h-32.064v31.648zM96 384.32h31.648v-32.064h-31.648v32.064z" />
<glyph unicode="&#xe60e;" d="M96 320h64v-64h192v64h64v-64h96v96h-160v96h-192.16v-29.184l0.16-66.816h-160v-96h96v64zM192 416h128v-64h-128v64zM416 224v-64h-64v64h-192v-64h-64v64h-96v-192h512v192z" />
<glyph unicode="&#xe60f;" d="M448.128 352.032h-96.96v95.968h-191.168v-95.968h-96.032v-223.712h31.584v-96.352h320.896v96.352h31.68v223.712zM191.104 416.608h129.792v-64.576h-129.792v64.576zM0 352.032h31.648v-223.712h-31.648v223.712zM0 96.064h63.968v-64.064h-63.968v64.064zM479.552 352.032h32.448v-223.712h-32.448v223.712zM448.128 96.064h63.584v-64.064h-63.584v64.064z" />
<glyph unicode="&#xe610;" d="M159.52 480h192.192v-31.936h-192.192v31.936zM127.488 416.672h-31.168v-32.032h31.424v32.032h31.776v31.392h-32.032zM351.712 448.064h32.544v-31.424h-32.544v31.424zM384.256 416.672h31.392v-32.032h-31.392v32.032zM479.136 191.808v32.192h-30.816v160.64h-32.672v-129.984h-94.848v-286.656h158.304v32.256h32.896v191.552h-32.864zM384.256 191.808h64.064v-160.16h-64.064v160.16zM63.68 254.656v-30.656h-30.784v-32.192h-32.896v-191.552h32.896v-32.256h158.304v286.656h-94.88v129.984h-32.64v-129.984zM127.744 191.808v-160.16h-64.064v160.16h64.064z" />
<glyph unicode="&#xe611;" d="M447.456 415.936v32.032h-31.392v32.032h-319.104v-32.032h-33.248v-32.032h-63.68v-447.936h512v447.936h-64.576zM447.456 32.8h-383.744v319.072h383.744v-319.072zM159.808 287.808h31.424v-158.912h-31.424v158.912zM319.968 287.808h32.64v-158.912h-32.64v158.912zM191.2 128.896h32.672v-32.672h-32.672v32.672zM223.872 96.224h64.064v-32.032h-64.064v32.032zM287.936 128.896h32.032v-32.672h-32.032v32.672z" />
<glyph unicode="&#xe612;" d="M415.328 480h-94.432v-63.36h-129.472v63.36h-159.424v-480h159.392v63.744h129.472v-63.744h159.136v480h-64.672zM415.328 31.904h-65.28v63.68h-188.832v-63.68h-62.592v416.576h62.208v-63.68h189.216v63.68h65.28v-416.576zM191.392 320.032v-159.712h129.472v95.2h-98.176v33.216h98.176v31.296h-129.472zM290.688 224.544v-32.096h-68v32.096h68z" />
<glyph unicode="&#xe613;" d="M0 384.608h127.904v-65.344h-127.904v65.344zM30.784 288.128v-32.384h33.184v-31.424h63.936v63.808h-63.936zM63.968 191.936v-32.384h31.968v-30.528h31.968v62.912h-31.968zM479.392 416h-320.64v-31.392h320.64v-320.608h32.608v352zM190.816 351.936h-32.064v-287.936h287.36v287.936h-255.296zM414.656 129.024h-223.84v159.104h223.84v-159.104z" />
<glyph unicode="&#xe614;" d="M0 480h32v-32h-32v32zM32 448h32v-32h-32v32zM64 480h32v-32h-32v32zM0 416h32v-32h-32v32zM64 416h32v-32h-32v32zM384 352h-96v-32h-32v-32h-32v-32h-32v-32h-32v-32h-32v-96h96v32h32v32h32v32h32v32h32v32h32zM192 480h32v-32h-32v32zM224 448h32v-32h-32v32zM256 480h32v-32h-32v32zM192 416h32v-32h-32v32zM256 416h32v-32h-32v32zM384 480h32v-32h-32v32zM416 448h32v-32h-32v32zM448 480h32v-32h-32v32zM384 416h32v-32h-32v32zM448 416h32v-32h-32v32zM0 64h32v-32h-32v32zM32 32h32v-32h-32v32zM64 64h32v-32h-32v32zM0 0h32v-32h-32v32zM64 0h32v-32h-32v32zM192 64h32v-32h-32v32zM224 32h32v-32h-32v32zM256 64h32v-32h-32v32zM192 0h32v-32h-32v32zM256 0h32v-32h-32v32zM384 64h32v-32h-32v32zM416 32h32v-32h-32v32zM448 64h32v-32h-32v32zM384 0h32v-32h-32v32zM448 0h32v-32h-32v32z" />
<glyph unicode="&#xe615;" d="M32 416h161.536v-157.184h-161.536v157.184zM255.968 416h63.584v-63.52h-63.584v63.52zM350.784 416h63.584v-63.52h-63.584v63.52zM448.416 416h63.584v-63.52h-63.584v63.52zM255.968 322.336h63.584v-63.52h-63.584v63.52zM350.784 322.336h63.584v-63.52h-63.584v63.52zM448.416 322.336h63.584v-63.52h-63.584v63.52zM32 189.184h161.536v-157.184h-161.536v157.184zM255.968 189.184h63.584v-63.52h-63.584v63.52zM350.784 189.184h63.584v-63.52h-63.584v63.52zM448.416 189.184h63.584v-63.52h-63.584v63.52zM255.968 95.488h63.584v-63.488h-63.584v63.488zM350.784 95.488h63.584v-63.488h-63.584v63.488zM448.416 95.488h63.584v-63.488h-63.584v63.488z" />
<glyph unicode="&#xe616;" d="M446.976 256.736v191.264h-94.976v-63.872h-33.504v32.48h-30.624v31.392h-63.296v-31.392h-32.448v-32.48h-32.48v-33.28h-31.232v-30.848h-32.48v-32.448h-31.232v-30.848h-32.704v-32.704h32.704v-224h159.872v31.136h63.296v-31.136h159.104v224h33.024v32.736h-33.024zM416 31.136h-97.248v161.504h-126.624v-161.504h-96.32v161.504h31.392v31.36h32.448v32.736h32.48v30.848h32.448v32.448h63.296v-32.448h30.88v-30.848h33.248v-32.736h30.848v-31.36h33.152v-161.504z" />
<glyph unicode="&#xe617;" d="M0 480l512-512v512h-512zM483.342 304.885h-247.292v47.164h247.289v-47.164h0.002z" />
<glyph unicode="&#xe618;" d="M233.109 432.529h-46.054v-45.212h-48.037v-45.775h-139.018v-232.257h139.018v-47.476h48.037v-46.339h46.054v-47.469h94.092v512h-94.091zM372.976 341.541h45.775v-46.904h-45.775v46.904zM418.751 387.317h46.341v-45.773h-46.341v45.773zM465.091 432.529h46.909v-45.207h-46.909v45.207zM372.976 246.605h139.024v-45.21h-139.024v45.209zM372.976 153.363h45.775v-47.469h-45.775v47.469zM418.751 105.893h47.467v-44.079h-47.467v44.079zM466.218 61.815h45.782v-46.343h-45.782v46.343z" />
<glyph unicode="&#xe619;" d="M127.552 384h32.512v32.16h-32.512v-31.808h-32.096v-32.32h32.096zM351.936 416.16h0.064v31.84h-191.936v-31.84h0.064zM384.48 384v-31.968h32.032v32.32h-32.032v31.808h-32.48v-32.16zM480.672 288v31.936h-31.552v31.936h-32.608v-63.872h-321.024v63.872h-32.544v-31.936h-31.584v-31.936h-31.36v-190.816h31.424v-65.408h31.488v-31.84h65.088v97.44h255.936v-97.44h65.056v31.84h31.488v65.408h31.424v190.816h-31.232zM62.944 256.864h97.184v-96.544h-97.184v96.544zM449.024 160.352h-97.088v96.512h97.088v-96.512z" />
</font>
</defs>
</svg>
